<svg width="120" height="25" viewBox="0 0 120 25" fill="none" xmlns="http://www.w3.org/2000/svg"><path d="M21.1188 11.8794C21.1188 11.8794 25.616 7.72924 23.5581 0.631593C21.6899 -0.00246056 19.6903 -0.103287 17.7713 0.339796C15.8521 0.78288 14.0848 1.75337 12.6567 3.14844C12.6567 3.14844 7.38951 1.49281 2.65479 6.39286C2.65479 6.39286 3.30239 12.3323 9.85043 14.7675C10.4581 16.6331 11.5306 18.3011 12.9603 19.6042C14.3899 20.9074 16.1265 21.7997 17.9959 22.1918C19.3218 20.8877 20.3042 19.2566 20.8505 17.4526C21.3968 15.6484 21.4892 13.7305 21.1188 11.8794ZM21.6513 2.59903C22.0539 4.90473 21.5602 7.28131 20.2769 9.2141C19.2533 6.91674 17.4666 5.07324 15.2399 4.01708C16.1554 3.3361 17.198 2.85846 18.3015 2.61437C19.4051 2.3703 20.5457 2.36507 21.6513 2.59903ZM5.274 7.17241C6.85958 5.83573 8.88014 5.17443 10.9226 5.32376C9.70798 7.29428 9.14499 9.61783 9.31794 11.9463C7.44821 10.9204 6.00903 9.22149 5.274 7.17241ZM11.7501 12.8223C11.503 11.6032 11.5247 10.3423 11.8137 9.13302C12.1026 7.92372 12.6514 6.79694 13.4195 5.83604C14.6097 6.24047 15.6913 6.9274 16.5774 7.84163C17.4634 8.75585 18.1291 9.87186 18.5211 11.0999C17.5785 11.8744 16.4848 12.4293 15.3147 12.7266C14.1447 13.0239 12.9263 13.0566 11.7429 12.8223H11.7501ZM12.592 15.3243C14.8476 15.4109 17.0801 14.8286 19.0249 13.6464C19.1994 15.7653 18.5525 17.8692 17.2259 19.4968C15.2137 18.7782 13.55 17.2826 12.5848 15.3243H12.592Z" fill="#0E6FFF"></path><path d="M36.2072 16.2091C35.1849 16.2091 34.2461 15.9692 33.3907 15.4893C32.5353 15.0095 31.8573 14.3471 31.3565 13.5021C30.8558 12.6467 30.6055 11.6818 30.6055 10.6073C30.6055 9.54332 30.8558 8.58883 31.3565 7.74387C31.8573 6.88848 32.5353 6.22086 33.3907 5.74101C34.2461 5.26116 35.1849 5.02123 36.2072 5.02123C37.24 5.02123 38.1788 5.26116 39.0238 5.74101C39.8791 6.22086 40.552 6.88848 41.0423 7.74387C41.543 8.58883 41.7933 9.54332 41.7933 10.6073C41.7933 11.6818 41.543 12.6467 41.0423 13.5021C40.552 14.3471 39.8791 15.0095 39.0238 15.4893C38.1684 15.9692 37.2295 16.2091 36.2072 16.2091ZM36.2072 14.2532C36.8644 14.2532 37.4434 14.1071 37.9441 13.8151C38.4448 13.5125 38.836 13.0848 39.1176 12.532C39.3993 11.9791 39.5401 11.3376 39.5401 10.6073C39.5401 9.87713 39.3993 9.24081 39.1176 8.69836C38.836 8.14549 38.4448 7.72301 37.9441 7.43093C37.4434 7.13884 36.8644 6.9928 36.2072 6.9928C35.55 6.9928 34.9659 7.13884 34.4547 7.43093C33.954 7.72301 33.5628 8.14549 33.2812 8.69836C32.9995 9.24081 32.8587 9.87713 32.8587 10.6073C32.8587 11.3376 32.9995 11.9791 33.2812 12.532C33.5628 13.0848 33.954 13.5125 34.4547 13.8151C34.9659 14.1071 35.55 14.2532 36.2072 14.2532Z" fill="#212529"></path><path d="M45.6137 8.68272C45.8954 8.28632 46.2814 7.95772 46.7716 7.69693C47.2724 7.42571 47.8409 7.2901 48.4772 7.2901C49.2179 7.2901 49.8855 7.47265 50.4801 7.83776C51.0851 8.20286 51.5597 8.72444 51.904 9.4025C52.2587 10.0701 52.436 10.8473 52.436 11.734C52.436 12.6206 52.2587 13.4082 51.904 14.0967C51.5597 14.7748 51.0851 15.3016 50.4801 15.6771C49.8855 16.0526 49.2179 16.2404 48.4772 16.2404C47.8409 16.2404 47.2776 16.11 46.7873 15.8492C46.3074 15.5884 45.9163 15.2598 45.6137 14.8634V20.2305H43.4231V7.43093H45.6137V8.68272ZM50.1984 11.734C50.1984 11.2124 50.0889 10.7638 49.8698 10.3883C49.6612 10.0023 49.3795 9.71023 49.0249 9.51203C48.6806 9.31383 48.3051 9.21473 47.8983 9.21473C47.5019 9.21473 47.1263 9.31904 46.7716 9.52768C46.4274 9.72587 46.1458 10.018 45.9267 10.4039C45.7181 10.7899 45.6137 11.2437 45.6137 11.7652C45.6137 12.2868 45.7181 12.7406 45.9267 13.1266C46.1458 13.5125 46.4274 13.8098 46.7716 14.0185C47.1263 14.2167 47.5019 14.3158 47.8983 14.3158C48.3051 14.3158 48.6806 14.2115 49.0249 14.0028C49.3795 13.7942 49.6612 13.4969 49.8698 13.1109C50.0889 12.725 50.1984 12.266 50.1984 11.734Z" fill="#212529"></path><path d="M62.0863 11.5775C62.0863 11.8904 62.0654 12.1721 62.0237 12.4224H55.6865C55.7387 13.0483 55.9577 13.5386 56.3437 13.8933C56.7297 14.248 57.2043 14.4253 57.7676 14.4253C58.5813 14.4253 59.1602 14.0758 59.5045 13.3769H61.8672C61.6168 14.2115 61.137 14.8999 60.4277 15.4424C59.7183 15.9744 58.8473 16.2404 57.8145 16.2404C56.98 16.2404 56.2289 16.0578 55.5613 15.6927C54.9041 15.3172 54.3878 14.7904 54.0122 14.1124C53.6471 13.4343 53.4646 12.6519 53.4646 11.7652C53.4646 10.8681 53.6471 10.0805 54.0122 9.4025C54.3773 8.72444 54.8885 8.20286 55.5457 7.83776C56.2029 7.47265 56.9591 7.2901 57.8145 7.2901C58.6386 7.2901 59.3741 7.46744 60.0208 7.82211C60.678 8.17678 61.1839 8.68272 61.5386 9.33991C61.9037 9.98666 62.0863 10.7325 62.0863 11.5775ZM59.8174 10.9516C59.807 10.3883 59.6036 9.93972 59.2072 9.60591C58.8108 9.26167 58.3257 9.08955 57.7519 9.08955C57.2095 9.08955 56.7505 9.25645 56.375 9.59026C56.0099 9.91364 55.7856 10.3674 55.7021 10.9516H59.8174Z" fill="#212529"></path><path d="M68.489 7.30575C69.5217 7.30575 70.3562 7.63434 70.9926 8.29153C71.6289 8.93829 71.947 9.84584 71.947 11.0142V16.0996H69.7564V11.3115C69.7564 10.623 69.5843 10.0962 69.2401 9.73109C68.8958 9.35555 68.4264 9.16779 67.8318 9.16779C67.2268 9.16779 66.7469 9.35555 66.3922 9.73109C66.048 10.0962 65.8759 10.623 65.8759 11.3115V16.0996H63.6852V7.43093H65.8759V8.5106C66.168 8.13506 66.5383 7.84297 66.9868 7.63434C67.4458 7.41528 67.9465 7.30575 68.489 7.30575Z" fill="#212529"></path><path d="M75.1412 6.3982C74.7552 6.3982 74.4318 6.27824 74.1711 6.03831C73.9207 5.78795 73.7955 5.48022 73.7955 5.11512C73.7955 4.75001 73.9207 4.44749 74.1711 4.20757C74.4318 3.95721 74.7552 3.83203 75.1412 3.83203C75.5272 3.83203 75.8453 3.95721 76.0957 4.20757C76.3565 4.44749 76.4869 4.75001 76.4869 5.11512C76.4869 5.48022 76.3565 5.78795 76.0957 6.03831C75.8453 6.27824 75.5272 6.3982 75.1412 6.3982ZM76.2209 7.43093V16.0996H74.0302V7.43093H76.2209Z" fill="#212529"></path><path d="M83.189 7.30575C84.2217 7.30575 85.0562 7.63434 85.6925 8.29153C86.3289 8.93829 86.647 9.84584 86.647 11.0142V16.0996H84.4564V11.3115C84.4564 10.623 84.2843 10.0962 83.94 9.73109C83.5958 9.35555 83.1264 9.16779 82.5318 9.16779C81.9267 9.16779 81.4469 9.35555 81.0922 9.73109C80.748 10.0962 80.5758 10.623 80.5758 11.3115V16.0996H78.3852V7.43093H80.5758V8.5106C80.8679 8.13506 81.2382 7.84297 81.6868 7.63434C82.1458 7.41528 82.6465 7.30575 83.189 7.30575Z" fill="#212529"></path><path d="M95.3133 14.0185H90.9633L90.2435 16.0996H87.9434L91.8709 5.16211H94.4214L98.3489 16.0996H96.0331L95.3133 14.0185ZM94.7187 12.266L93.1383 7.69698L91.5579 12.266H94.7187Z" fill="#0E6FFF"></path><path d="M102.008 8.68277C102.289 8.28637 102.675 7.95777 103.165 7.69698C103.666 7.42576 104.235 7.29015 104.871 7.29015C105.612 7.29015 106.279 7.47271 106.874 7.83781C107.479 8.20292 107.954 8.7245 108.298 9.40255C108.652 10.0702 108.83 10.8473 108.83 11.734C108.83 12.6207 108.652 13.4083 108.298 14.0968C107.954 14.7748 107.479 15.3016 106.874 15.6771C106.279 16.0527 105.612 16.2404 104.871 16.2404C104.235 16.2404 103.671 16.1101 103.181 15.8493C102.701 15.5885 102.31 15.2599 102.008 14.8635V20.2305H99.8169V7.43098H102.008V8.68277ZM106.592 11.734C106.592 11.2124 106.483 10.7639 106.264 10.3883C106.055 10.0024 105.773 9.71028 105.419 9.51208C105.074 9.31388 104.699 9.21478 104.292 9.21478C103.896 9.21478 103.52 9.3191 103.165 9.52773C102.821 9.72593 102.54 10.018 102.32 10.404C102.112 10.7899 102.008 11.2437 102.008 11.7653C102.008 12.2869 102.112 12.7407 102.32 13.1266C102.54 13.5126 102.821 13.8099 103.165 14.0185C103.52 14.2167 103.896 14.3158 104.292 14.3158C104.699 14.3158 105.074 14.2115 105.419 14.0029C105.773 13.7942 106.055 13.4969 106.264 13.111C106.483 12.725 106.592 12.266 106.592 11.734Z" fill="#0E6FFF"></path><path d="M112.612 8.68277C112.894 8.28637 113.28 7.95777 113.77 7.69698C114.271 7.42576 114.839 7.29015 115.476 7.29015C116.216 7.29015 116.884 7.47271 117.479 7.83781C118.084 8.20292 118.558 8.7245 118.903 9.40255C119.257 10.0702 119.435 10.8473 119.435 11.734C119.435 12.6207 119.257 13.4083 118.903 14.0968C118.558 14.7748 118.084 15.3016 117.479 15.6771C116.884 16.0527 116.216 16.2404 115.476 16.2404C114.839 16.2404 114.276 16.1101 113.786 15.8493C113.306 15.5885 112.915 15.2599 112.612 14.8635V20.2305H110.422V7.43098H112.612V8.68277ZM117.197 11.734C117.197 11.2124 117.087 10.7639 116.868 10.3883C116.66 10.0024 116.378 9.71028 116.023 9.51208C115.679 9.31388 115.304 9.21478 114.897 9.21478C114.5 9.21478 114.125 9.3191 113.77 9.52773C113.426 9.72593 113.144 10.018 112.925 10.404C112.717 10.7899 112.612 11.2437 112.612 11.7653C112.612 12.2869 112.717 12.7407 112.925 13.1266C113.144 13.5126 113.426 13.8099 113.77 14.0185C114.125 14.2167 114.5 14.3158 114.897 14.3158C115.304 14.3158 115.679 14.2115 116.023 14.0029C116.378 13.7942 116.66 13.4969 116.868 13.111C117.087 12.725 117.197 12.266 117.197 11.734Z" fill="#0E6FFF"></path><path d="M8.27472 16.3947C7.52117 15.6167 6.49928 15.1797 5.43378 15.1797C4.36828 15.1797 3.34639 15.6167 2.59285 16.3947C0.122777 18.916 0.979739 23.9289 0.979739 23.9289C0.979739 23.9289 5.83345 24.7841 8.27472 22.2628C9.02802 21.4846 9.45119 20.4292 9.45119 19.3288C9.45119 18.2284 9.02802 17.1729 8.27472 16.3947ZM3.00332 21.8091C3.00332 21.8091 2.83769 19.4812 4.19155 18.0905C4.3467 17.9101 4.5359 17.7645 4.74754 17.6624C4.95916 17.5603 5.18876 17.5041 5.42223 17.497C5.6557 17.4899 5.88811 17.5322 6.10519 17.6211C6.32226 17.7102 6.51943 17.8441 6.6846 18.0147C6.84974 18.1851 6.9794 18.3888 7.0656 18.6131C7.1518 18.8372 7.19271 19.0773 7.18585 19.3183C7.17897 19.5595 7.12446 19.7966 7.02563 20.0152C6.92682 20.2337 6.78578 20.4292 6.61121 20.5893C5.28615 21.9802 3.00332 21.8091 3.00332 21.8091Z" fill="#0E6FFF"></path></svg>